<svg width="25" height="25" viewBox="0 0 25 25" fill="none" xmlns="http://www.w3.org/2000/svg">
<g id="Frame" clip-path="url(#clip0_128_2276)">
<g id="menu 2">
<path id="Rectangle 49" d="M11.699 17.1909H4.503C4.0065 17.1909 3.604 17.5934 3.604 18.0899V18.0909C3.604 18.5874 4.0065 18.9899 4.503 18.9899H11.699C12.1955 18.9899 12.598 18.5874 12.598 18.0909V18.0899C12.598 17.5934 12.1955 17.1909 11.699 17.1909Z" fill="#231E36"/>
<path id="Rectangle 50" d="M13.2041 5.19897H4.50911C4.0126 5.19897 3.61011 5.60147 3.61011 6.09797V6.09897C3.61011 6.59548 4.0126 6.99797 4.50911 6.99797H13.2041C13.7006 6.99797 14.1031 6.59548 14.1031 6.09897V6.09797C14.1031 5.60147 13.7006 5.19897 13.2041 5.19897Z" fill="#231E36"/>
<path id="Rectangle 51" d="M20.6991 11.1949H4.50911C4.0126 11.1949 3.61011 11.5974 3.61011 12.0939V12.0949C3.61011 12.5915 4.0126 12.9939 4.50911 12.9939H20.6991C21.1956 12.9939 21.5981 12.5915 21.5981 12.0949V12.0939C21.5981 11.5974 21.1956 11.1949 20.6991 11.1949Z" fill="#231E36"/>
</g>
</g>
<defs>
<clipPath id="clip0_128_2276">
<rect width="24" height="24" fill="white" transform="translate(0.604004 0.69397)"/>
</clipPath>
</defs>
</svg>
