<svg width="20" height="20" viewBox="0 0 20 20" fill="none" xmlns="http://www.w3.org/2000/svg">
<path d="M17.2583 16.103L14.425 13.3123C15.3391 12.1618 15.8352 10.7411 15.8333 9.27849C15.8333 7.97595 15.4423 6.70267 14.7098 5.61965C13.9772 4.53663 12.9361 3.69252 11.7179 3.19406C10.4997 2.6956 9.15927 2.56518 7.86606 2.8193C6.57286 3.07341 5.38497 3.70064 4.45262 4.62167C3.52027 5.5427 2.88534 6.71617 2.6281 7.99368C2.37087 9.27118 2.50289 10.5954 3.00747 11.7987C3.51206 13.0021 4.36654 14.0307 5.46287 14.7543C6.55919 15.478 7.84812 15.8642 9.16666 15.8642C10.6472 15.866 12.0854 15.376 13.25 14.473L16.075 17.2719C16.1525 17.3491 16.2446 17.4103 16.3462 17.4521C16.4477 17.4939 16.5566 17.5154 16.6667 17.5154C16.7767 17.5154 16.8856 17.4939 16.9871 17.4521C17.0887 17.4103 17.1809 17.3491 17.2583 17.2719C17.3364 17.1954 17.3984 17.1044 17.4407 17.004C17.483 16.9037 17.5048 16.7961 17.5048 16.6874C17.5048 16.5788 17.483 16.4712 17.4407 16.3709C17.3984 16.2705 17.3364 16.1795 17.2583 16.103ZM4.16667 9.27849C4.16667 8.30159 4.45991 7.34662 5.00932 6.53436C5.55873 5.7221 6.33962 5.08901 7.25325 4.71517C8.16688 4.34132 9.17221 4.24351 10.1421 4.43409C11.112 4.62468 12.0029 5.0951 12.7022 5.78587C13.4015 6.47665 13.8777 7.35675 14.0706 8.31488C14.2635 9.27301 14.1645 10.2661 13.7861 11.1687C13.4076 12.0712 12.7668 12.8426 11.9445 13.3854C11.1223 13.9281 10.1556 14.2178 9.16666 14.2178C7.84058 14.2178 6.56881 13.6974 5.63113 12.7711C4.69345 11.8448 4.16667 10.5885 4.16667 9.27849Z" fill="#231E36"/>
</svg>
